<svg width="348" height="64" fill="none" xmlns="http://www.w3.org/2000/svg"><path d="M9.803 10.864a242.95 242.95 0 0 1-3.746.78c-.5.105-1 .199-1.499.282a87.23 87.23 0 0 0-1.374.25 52.82 52.82 0 0 1-1.186.156 6.629 6.629 0 0 1-.75.062c-.353 0-.655-.062-.905-.187C.114 12.06 0 11.78 0 11.364V7.867c0-.395.167-.749.5-1.061.333-.333.853-.5 1.56-.5h38.744c.707 0 1.228.167 1.56.5.334.312.5.666.5 1.061v3.497c0 .416-.124.697-.374.843-.23.125-.52.187-.874.187-.188 0-.448-.02-.78-.062a67.57 67.57 0 0 1-1.156-.156 62.092 62.092 0 0 0-1.405-.25 45.31 45.31 0 0 1-1.467-.281c-1.145-.23-2.394-.49-3.746-.78V46.86c0 .708-.063 1.333-.188 1.874-.125.52-.364.968-.718 1.342-.333.354-.801.624-1.405.812-.603.166-1.373.25-2.31.25H14.517c-.978 0-1.78-.094-2.404-.281-.603-.188-1.082-.458-1.436-.812-.333-.354-.562-.801-.687-1.343-.125-.54-.187-1.175-.187-1.904V10.864zm20.605-.655-2.435-.53v38.836c.5 0 .905-.01 1.217-.031.312-.042.562-.125.75-.25.187-.145.312-.343.374-.593.063-.27.094-.645.094-1.124V10.21zM60.379 52.23c-1.561 0-3.122-.125-4.683-.374a23.034 23.034 0 0 1-4.496-1.187 17.723 17.723 0 0 1-3.965-2.123 13.87 13.87 0 0 1-3.215-3.215c-.895-1.27-1.603-2.737-2.123-4.402-.52-1.686-.78-3.611-.78-5.776 0-2.123.26-4.017.78-5.682.52-1.686 1.228-3.163 2.123-4.433a13.874 13.874 0 0 1 3.215-3.216 17.03 17.03 0 0 1 3.965-2.154 21.712 21.712 0 0 1 4.496-1.217 29.603 29.603 0 0 1 4.683-.375c1.436 0 2.903.094 4.402.281 1.519.167 2.986.49 4.401.968a16.617 16.617 0 0 1 4.028 1.904 12.145 12.145 0 0 1 3.309 3.06c.957 1.249 1.707 2.747 2.248 4.495.562 1.728.843 3.767.843 6.12 0 2.414-.27 4.526-.812 6.337-.541 1.79-1.29 3.33-2.248 4.62a13.071 13.071 0 0 1-3.278 3.154 16.807 16.807 0 0 1-4.027 1.966 23.646 23.646 0 0 1-4.402.968c-1.52.188-3.008.281-4.465.281zm9.584-7.492c.645 0 1.28-.136 1.904-.406.645-.292 1.207-.802 1.686-1.53.5-.728.895-1.727 1.187-2.997.312-1.29.468-2.924.468-4.902 0-1.873-.156-3.413-.468-4.62-.292-1.207-.687-2.154-1.187-2.841-.5-.708-1.061-1.197-1.686-1.467a4.75 4.75 0 0 0-1.904-.406c-.5 0-1.061.104-1.686.312-.603.208-1.176.656-1.717 1.342-.52.666-.957 1.634-1.311 2.904-.354 1.249-.531 2.924-.531 5.026s.146 3.788.437 5.058c.291 1.27.677 2.237 1.155 2.903.479.666 1.03 1.103 1.655 1.311a6.469 6.469 0 0 0 1.998.313zm-2.341 1.248a6.97 6.97 0 0 1-2.03-.718c-.666-.354-1.259-.926-1.78-1.717-.52-.812-.946-1.883-1.28-3.215-.311-1.353-.468-3.08-.468-5.183 0-1.394.084-2.622.25-3.684.188-1.061.427-1.977.718-2.747.312-.77.666-1.415 1.062-1.936a7.97 7.97 0 0 1 1.186-1.28c.416-.354.822-.614 1.218-.78.416-.188.79-.323 1.123-.406-.728 0-1.56.166-2.497.5-.937.312-1.821.874-2.654 1.685-.832.812-1.54 1.926-2.123 3.34-.562 1.395-.843 3.164-.843 5.308 0 2.165.25 3.944.75 5.339.5 1.394 1.134 2.497 1.904 3.309.79.812 1.665 1.384 2.623 1.717.978.312 1.925.468 2.84.468zm51.98.812c0 .728-.062 1.363-.187 1.904-.125.542-.365.99-.718 1.343-.354.354-.843.624-1.468.812-.624.187-1.436.28-2.435.28h-13.643a36.581 36.581 0 0 1-4.527-.405 23.567 23.567 0 0 1-4.245-1.124 17.975 17.975 0 0 1-3.747-1.998 13.65 13.65 0 0 1-2.997-2.997c-.832-1.187-1.488-2.57-1.967-4.152-.478-1.603-.718-3.435-.718-5.495 0-2.56.364-4.756 1.093-6.588.728-1.852 1.717-3.402 2.966-4.651a14.232 14.232 0 0 1 4.34-2.966 23.542 23.542 0 0 1 5.244-1.592V4.37c0-.729.052-1.364.156-1.905.104-.562.323-1.02.656-1.373.333-.375.79-.646 1.373-.812.583-.186 1.364-.28 2.342-.28h13.674c.999 0 1.811.094 2.435.281.625.187 1.114.458 1.468.812.353.353.593.811.718 1.373.125.541.187 1.166.187 1.874v42.458zm-32.219-11.8c0 1.54.177 2.986.531 4.339.354 1.332.895 2.518 1.624 3.559.749 1.02 1.706 1.862 2.872 2.528 1.165.666 2.56 1.093 4.183 1.28v-23.54c-1.623.188-3.018.625-4.183 1.312a8.966 8.966 0 0 0-2.872 2.56c-.729 1.04-1.27 2.237-1.624 3.59-.354 1.353-.53 2.81-.53 4.371zM116.948 4.62c0-.457-.031-.822-.093-1.092-.063-.27-.188-.468-.375-.593-.187-.146-.437-.23-.749-.25a9.567 9.567 0 0 0-1.218-.063v45.893c.5 0 .906-.01 1.218-.031.312-.042.562-.125.749-.25a1.05 1.05 0 0 0 .375-.593c.062-.27.093-.645.093-1.124V4.62zm21.479 46.518c-1.124 0-2.258-.073-3.403-.219a20.385 20.385 0 0 1-3.246-.687 14.897 14.897 0 0 1-2.873-1.28 9.15 9.15 0 0 1-2.341-1.935c-.645-.77-1.155-1.676-1.53-2.717-.374-1.04-.562-2.237-.562-3.59 0-1.81.344-3.361 1.03-4.651a9.553 9.553 0 0 1 2.748-3.216c1.165-.853 2.497-1.509 3.996-1.967a21.602 21.602 0 0 1 4.652-.874v-2.154c0-.812-.104-1.457-.313-1.936-.208-.479-.478-.832-.811-1.061a2.231 2.231 0 0 0-1.062-.469 5.029 5.029 0 0 0-1.092-.124 5.33 5.33 0 0 0-1.343.187c-.458.125-.905.28-1.342.468-.437.167-.854.354-1.249.562-.396.208-.729.396-.999.562-.125.083-.24.156-.344.219a.601.601 0 0 1-.312.093c-.187 0-.364-.135-.531-.406l-1.061-1.685a.791.791 0 0 1-.156-.469.6.6 0 0 1 .187-.437 4.25 4.25 0 0 1 .406-.312c.687-.479 1.561-.968 2.623-1.467a25.94 25.94 0 0 1 3.559-1.343 34.637 34.637 0 0 1 4.308-.968c1.54-.25 3.132-.374 4.776-.374 1.561 0 3.081.052 4.558.156a22.01 22.01 0 0 1 4.215.687c1.332.333 2.539.822 3.622 1.467a9.294 9.294 0 0 1 2.841 2.498c.811 1.04 1.436 2.32 1.873 3.84.437 1.519.655 3.34.655 5.463v13.924c0 .687-.062 1.3-.187 1.842-.125.52-.364.957-.718 1.311s-.843.624-1.467.812c-.625.166-1.436.25-2.435.25h-16.672zm-1.529-17.171c-1.499 0-2.758.187-3.778.562-1.02.374-1.842.874-2.466 1.498a5.419 5.419 0 0 0-1.343 2.186 7.96 7.96 0 0 0-.406 2.529c0 .874.136 1.706.406 2.497a5.03 5.03 0 0 0 1.343 2.03c.624.582 1.446 1.04 2.466 1.373 1.02.333 2.279.5 3.778.5V33.966zm17.92 14.548c.499 0 .905-.01 1.217-.031.312-.042.562-.125.749-.25a1.04 1.04 0 0 0 .375-.593c.062-.27.094-.645.094-1.124V32.312c0-1.686-.177-3.1-.531-4.246-.354-1.165-.801-2.112-1.342-2.84-.521-.75-1.093-1.312-1.718-1.686-.624-.396-1.207-.687-1.748-.875.25.27.541.656.874 1.155.354.5.677 1.135.968 1.905.291.77.541 1.696.749 2.778.209 1.062.313 2.29.313 3.684v16.328zm32.999-16.078 4.37-11.426c.104-.27.198-.51.281-.718a2.33 2.33 0 0 1 .312-.593c.125-.167.292-.292.5-.375.208-.104.479-.156.812-.156h3.652c.583 0 .875.166.875.5 0 .27-.105.655-.313 1.154L180.667 62.44c-.125.27-.229.5-.312.687a1.46 1.46 0 0 1-.312.5.948.948 0 0 1-.406.28c-.166.063-.395.094-.687.094h-4.027c-.624 0-.937-.187-.937-.562 0-.25.125-.624.375-1.124l4.183-8.991-15.453-31.532c-.208-.458-.312-.853-.312-1.186 0-.52.197-.885.593-1.093a2.569 2.569 0 0 1 1.248-.343h15.829c.749 0 1.321.156 1.717.468.416.291.687.583.812.874l4.839 11.926zm-6.713-9.678c-.27-.645-.728-.968-1.373-.968h-1.499l6.962 17.39 1.218-3.154-5.308-13.268zm20.387.749c0-.707.062-1.332.187-1.873.125-.562.364-1.02.718-1.373.354-.354.843-.625 1.467-.812.625-.188 1.437-.281 2.436-.281h13.674c.957 0 1.727.093 2.31.28.583.188 1.041.469 1.374.844.333.374.551.843.655 1.405.125.561.188 1.217.188 1.966v2.31l6.93-6.743c.458-.437.885-.655 1.28-.655.229 0 .427.052.593.156.188.083.344.187.469.312l1.405 1.467c.312.312.468.656.468 1.03 0 .23-.073.469-.219.718-.125.23-.333.458-.624.687L224.5 30.938v15.798c0 .728-.053 1.373-.157 1.935a2.7 2.7 0 0 1-.686 1.374c-.354.354-.864.624-1.53.812-.666.187-1.572.28-2.716.28h-13.112c-.999 0-1.811-.093-2.436-.28-.624-.188-1.113-.458-1.467-.812-.354-.354-.593-.801-.718-1.343-.125-.54-.187-1.175-.187-1.904v-23.29zm20.355.281c0-.458-.031-.822-.094-1.092-.062-.271-.187-.469-.374-.594-.188-.145-.438-.229-.75-.25a9.546 9.546 0 0 0-1.217-.062v26.724c.499 0 .905-.01 1.217-.031.312-.042.562-.125.75-.25.187-.145.312-.343.374-.593.063-.27.094-.645.094-1.124V23.79zm27.411 27.349a26.92 26.92 0 0 1-3.403-.219 20.397 20.397 0 0 1-3.247-.687 14.888 14.888 0 0 1-2.872-1.28 9.156 9.156 0 0 1-2.342-1.935c-.645-.77-1.155-1.676-1.53-2.717-.374-1.04-.562-2.237-.562-3.59 0-1.81.344-3.361 1.031-4.651a9.55 9.55 0 0 1 2.747-3.216c1.166-.853 2.498-1.509 3.996-1.967a21.613 21.613 0 0 1 4.652-.874v-2.154c0-.812-.104-1.457-.312-1.936-.208-.479-.479-.832-.812-1.061a2.227 2.227 0 0 0-1.062-.469 5.022 5.022 0 0 0-1.092-.124 5.34 5.34 0 0 0-1.343.187c-.458.125-.905.28-1.342.468-.437.167-.853.354-1.249.562a17.98 17.98 0 0 0-.999.562 8.783 8.783 0 0 1-.343.219.602.602 0 0 1-.313.093c-.187 0-.364-.135-.53-.406l-1.062-1.685a.791.791 0 0 1-.156-.469.6.6 0 0 1 .188-.437c.145-.125.28-.229.405-.312.687-.479 1.561-.968 2.623-1.467a25.99 25.99 0 0 1 3.559-1.343 34.637 34.637 0 0 1 4.308-.968c1.54-.25 3.132-.374 4.777-.374 1.561 0 3.08.052 4.558.156 1.498.104 2.903.333 4.214.687 1.332.333 2.54.822 3.622 1.467a9.294 9.294 0 0 1 2.841 2.498c.812 1.04 1.436 2.32 1.873 3.84.437 1.519.656 3.34.656 5.463v13.924c0 .687-.063 1.3-.188 1.842-.125.52-.364.957-.718 1.311s-.843.624-1.467.812c-.624.166-1.436.25-2.435.25h-16.671zm-1.53-17.171c-1.499 0-2.758.187-3.778.562-1.02.374-1.842.874-2.466 1.498a5.43 5.43 0 0 0-1.343 2.186 7.959 7.959 0 0 0-.405 2.529c0 .874.135 1.706.405 2.497.271.77.719 1.447 1.343 2.03.624.582 1.446 1.04 2.466 1.373 1.02.333 2.279.5 3.778.5V33.966zm17.92 14.548c.499 0 .905-.01 1.217-.031.313-.042.562-.125.75-.25.187-.145.312-.343.374-.593.063-.27.094-.645.094-1.124V32.312c0-1.686-.177-3.1-.531-4.246-.354-1.165-.801-2.112-1.342-2.84-.521-.75-1.093-1.312-1.717-1.686-.625-.396-1.207-.687-1.749-.875.25.27.542.656.875 1.155.353.5.676 1.135.967 1.905.292.77.542 1.696.75 2.778.208 1.062.312 2.29.312 3.684v16.328zm8.616-19.106c-.437 0-.655-.23-.655-.687v-2.498c0-.437.218-.655.655-.655h3.247v-7.087c0-.312.042-.624.125-.937.104-.312.364-.551.781-.718l17.233-6.369a26.84 26.84 0 0 1 1.967-.655c.52-.146.978-.219 1.373-.219.146 0 .302.032.469.094.187.042.353.125.499.25.167.125.302.302.406.53.104.209.156.469.156.781v14.33h5.62c.437 0 .655.218.655.655v2.498c0 .458-.218.687-.655.687h-5.62V41.99c0 1.478.239 2.519.718 3.122.5.604 1.259.906 2.279.906.229 0 .468-.021.718-.063.25-.062.479-.114.687-.156.229-.062.437-.114.624-.156.188-.063.344-.094.469-.094.229 0 .343.136.343.406v2.404c0 .416-.083.697-.25.843-.166.146-.312.24-.437.28a29.95 29.95 0 0 1-2.809 1 33.68 33.68 0 0 1-3.466.874 35.6 35.6 0 0 1-3.902.624 34.23 34.23 0 0 1-4.121.25c-1.978 0-3.819-.104-5.526-.312-1.686-.187-3.153-.635-4.402-1.342-1.228-.708-2.196-1.76-2.904-3.154-.686-1.394-1.03-3.288-1.03-5.681V29.408h-3.247zm23.602-15.36c0-.416-.052-.75-.156-1-.083-.27-.301-.405-.655-.405-.125 0-.292.02-.5.062a3.231 3.231 0 0 0-.624.219l-.5.218v29.659c0 .937.156 1.696.469 2.279.312.583.697 1.04 1.155 1.374.458.333.947.562 1.467.687.52.103.989.156 1.405.156-.312-.25-.604-.5-.874-.75a4.771 4.771 0 0 1-.656-.905 6.32 6.32 0 0 1-.406-1.155 8.481 8.481 0 0 1-.125-1.561V14.049zm41.991 31.906c.562 0 1.071-.073 1.529-.218a9.696 9.696 0 0 0 1.218-.531c.375-.188.676-.354.905-.5.25-.166.437-.25.562-.25.188 0 .312.032.375.094a1.3 1.3 0 0 1 .281.344l1.093 1.686c.104.166.156.312.156.437 0 .145-.042.26-.125.343a2.336 2.336 0 0 1-.25.218c-.687.48-1.53 1-2.529 1.561-.999.542-2.164 1.041-3.496 1.5-1.312.457-2.8.832-4.465 1.123-1.665.312-3.496.468-5.494.468-1.561 0-3.122-.125-4.683-.374a23.036 23.036 0 0 1-4.496-1.187 17.73 17.73 0 0 1-3.965-2.123 13.85 13.85 0 0 1-3.215-3.215c-.895-1.27-1.603-2.737-2.123-4.402-.521-1.686-.781-3.611-.781-5.776 0-2.123.26-4.017.781-5.682.52-1.686 1.228-3.163 2.123-4.433a13.854 13.854 0 0 1 3.215-3.216 17.036 17.036 0 0 1 3.965-2.154 21.714 21.714 0 0 1 4.496-1.217 29.604 29.604 0 0 1 4.683-.375c2.601 0 5.016.291 7.243.874 2.247.583 4.193 1.54 5.838 2.872 1.644 1.332 2.934 3.08 3.871 5.245.936 2.165 1.405 4.819 1.405 7.961v1.749c0 .374-.094.666-.281.874-.188.208-.5.312-.937.312H333.83c.167 1.54.458 2.83.874 3.871.437 1.02.927 1.842 1.468 2.466.562.604 1.165 1.03 1.81 1.28.646.25 1.27.375 1.874.375zm3.684-11.832c0-1.665-.136-3.039-.406-4.121-.25-1.103-.594-1.977-1.031-2.622-.437-.666-.957-1.135-1.561-1.405a4.318 4.318 0 0 0-1.841-.406c-.479 0-1 .093-1.561.28-.562.188-1.093.584-1.593 1.187-.478.604-.895 1.467-1.248 2.591-.333 1.124-.531 2.623-.594 4.496h9.835zm-5.745 13.58c-.666-.145-1.394-.437-2.185-.874-.791-.458-1.53-1.155-2.217-2.091-.687-.937-1.259-2.165-1.717-3.684-.458-1.52-.687-3.424-.687-5.714 0-2.102.198-3.881.593-5.338.417-1.457.947-2.654 1.593-3.59.645-.937 1.373-1.634 2.185-2.092.812-.479 1.623-.78 2.435-.905a10.539 10.539 0 0 0-3.59.749c-1.124.437-2.123 1.134-2.997 2.092-.854.957-1.53 2.185-2.029 3.683-.5 1.499-.75 3.3-.75 5.401 0 2.248.292 4.163.874 5.745.583 1.56 1.322 2.84 2.217 3.84.916.978 1.925 1.686 3.028 2.123 1.103.437 2.186.655 3.247.655z" fill="#0C1115"/></svg>